<svg xmlns="http://www.w3.org/2000/svg" viewBox="0 0 16 16" width="100" height="100">
  <path fill="#181616" d="M8 0C3.58 0 0 3.58 0 8c0 3.54 2.29 6.54 5.47 7.59.4.07.55-.17.55-.38 0-.19-.01-.72-.01-1.41-2.01.44-2.43-.48-2.57-.92-.08-.19-.43-.92-.74-1.1-.25-.13-.61-.45-.01-.46.57-.01 1 .53 1.14.76.66 1.11 1.73.8 2.15.6.06-.48.26-.8.47-1.1-1.63-.19-3.34-.82-3.34-3.66 0-.81.29-1.47.76-2.01-.08-.19-.33-.95.07-1.98 0 0 .63-.2 2.07.76.6-.17 1.24-.25 1.87-.25.63 0 1.27.08 1.87.25 1.44-.97 2.07-.76 2.07-.76.41 1.03.15 1.79.07 1.98.47.54.76 1.2.76 2.01 0 2.85-1.72 3.47-3.35 3.66.27.23.51.68.51 1.37 0 .99-.01 1.79-.01 2.03 0 .21.15.46.55.38A8.007 8.007 0 0016 8c0-4.42-3.58-8-8-8z"/>
</svg>
